<svg width="20" height="20" viewBox="0 0 20 20" fill="none" xmlns="http://www.w3.org/2000/svg">
<g clip-path="url(#clip0)">
<path d="M9.93329 19.559C9.23659 19.559 8.54025 19.4186 7.89539 19.1382L4.81186 17.7977C3.69631 17.3125 2.5168 17.0051 1.30614 16.8841L0.293527 16.7828C0.12681 16.7663 0 16.626 0 16.4586V13.2822C0 13.2117 0.0229376 13.143 0.0652697 13.0867C0.140982 12.9855 1.95585 10.6145 4.72813 11.2314C6.28733 11.5779 7.54275 12.2263 8.32132 12.7093C8.88656 13.0599 9.54914 13.245 10.2375 13.245H13.321C13.8525 13.245 14.3196 13.5263 14.5809 13.9481L17.2366 10.8884C17.7515 10.2009 18.5938 9.77979 19.4757 9.77979H19.6741C19.7843 9.77979 19.8869 9.83536 19.947 9.92748C20.0072 10.0196 20.0167 10.1362 19.9725 10.2369L17.5706 15.6956C17.0454 16.8895 15.9761 17.7914 14.7105 18.1078L14.2879 18.2134L11.8297 19.1967C11.2247 19.4386 10.5789 19.559 9.93329 19.559ZM0.651951 16.1635L1.37104 16.2355C2.64902 16.3633 3.89417 16.6879 5.07201 17.2L8.15535 18.5405C9.23957 19.0119 10.49 19.0304 11.5878 18.5912L14.0662 17.5998C14.08 17.5944 14.094 17.59 14.1083 17.5864L14.5523 17.4753C15.6241 17.2073 16.5294 16.4438 16.9738 15.4331L19.1647 10.4541C18.6037 10.5367 18.0875 10.839 17.7436 11.2974L14.8017 14.6881C14.802 14.7007 14.8022 14.7132 14.8022 14.7261C14.8022 15.5427 14.1378 16.2072 13.3212 16.2072H9.01896C8.45969 16.2072 7.90695 16.2969 7.3764 16.4737L7.25668 16.1697L7.15542 15.8599L7.17202 15.8545C7.76746 15.6561 8.38939 15.5552 9.01896 15.5552H13.3212C13.7782 15.5552 14.1505 15.1832 14.1505 14.7259C14.1505 14.2687 13.7784 13.8966 13.3212 13.8966H10.2376C9.42773 13.8966 8.64636 13.6775 7.978 13.2629C7.24251 12.8066 6.05684 12.1944 4.58715 11.8675C2.48771 11.4018 0.976993 13.0131 0.652137 13.3974V16.1635H0.651951Z" fill="#007C1B"/>
<path d="M12.8359 9.70593C12.3346 9.70593 11.7726 9.55115 11.1538 9.24177C11.0788 9.2041 11.021 9.13883 10.9927 9.05995C10.9675 8.98927 10.3851 7.31408 11.3106 6.07526C11.9833 5.17472 13.248 4.76912 15.0718 4.87075C15.2382 4.87989 15.3708 5.01323 15.379 5.17995C15.3855 5.30937 15.52 8.36417 13.9623 9.38126C13.6311 9.59777 13.2547 9.70593 12.8359 9.70593ZM11.5695 8.71868C12.4256 9.12018 13.11 9.15953 13.6061 8.83561C14.5297 8.23233 14.7295 6.44151 14.7343 5.50946C13.3053 5.47459 12.3324 5.79665 11.8328 6.4652C11.2383 7.2613 11.4693 8.35634 11.5695 8.71868Z" fill="#007C1B"/>
<path d="M7.85143 5.43545C7.27351 5.43545 6.60683 5.31163 6.025 4.88551C5.03812 4.16232 4.58459 2.7855 4.67671 0.793475C4.68454 0.626944 4.81657 0.493048 4.98311 0.483164C5.12409 0.475145 8.46105 0.297053 9.58387 1.9825C10.1068 2.76704 10.0639 3.79457 9.45687 5.03712C9.41995 5.11265 9.35543 5.17102 9.27654 5.19992C9.23272 5.21615 8.62086 5.43545 7.85143 5.43545ZM9.16409 4.89409H9.16726H9.16409ZM5.31822 1.12449C5.29006 2.72005 5.65688 3.80763 6.41009 4.35962C7.31193 5.02034 8.54329 4.73949 8.93043 4.62667C9.37333 3.66553 9.41081 2.89814 9.04157 2.34391C8.35531 1.31377 6.34277 1.11236 5.31822 1.12449Z" fill="#007C1B"/>
<path d="M10.3969 13.7816C10.3867 13.7816 10.3764 13.781 10.366 13.7801C10.1924 13.7637 10.0624 13.6135 10.0712 13.4392C10.0904 13.0558 10.1232 12.6921 10.1678 12.3475C10.3033 10.0411 10.2334 4.66993 6.83751 3.18402C6.67266 3.11185 6.59732 2.91977 6.66949 2.75473C6.74147 2.59006 6.93411 2.51491 7.09878 2.58689C9.09994 3.46244 10.3589 5.64226 10.7388 8.89064C10.7729 9.18174 10.7984 9.46874 10.8175 9.74828C11.7119 7.48827 13.0801 6.68974 13.1616 6.64405C13.3182 6.55547 13.517 6.61179 13.6054 6.76825C13.6933 6.9249 13.6381 7.12313 13.482 7.21153C13.4475 7.23167 11.3493 8.49081 10.8227 12.3738C10.7826 13.0381 10.7248 13.4616 10.7194 13.5004C10.6968 13.663 10.5579 13.7816 10.3969 13.7816Z" fill="#007C1B"/>
</g>
<defs>
<clipPath id="clip0">
<rect width="20" height="20" fill="white"/>
</clipPath>
</defs>
</svg>
