<svg width="20" height="20" viewBox="0 0 20 20" fill="none" xmlns="http://www.w3.org/2000/svg">
<g clip-path="url(#clip0)">
<path d="M6.94537 8.08294C7.09811 7.9302 7.09811 7.68285 6.94537 7.53057C6.79308 7.37783 6.54574 7.37783 6.393 7.53057C6.24026 7.68285 6.24026 7.9302 6.393 8.08294C6.54574 8.23522 6.79308 8.23522 6.94537 8.08294Z" fill="#8D8D8D"/>
<path d="M10.8125 8.63524C11.2694 8.17839 11.2694 7.43499 10.8125 6.97814C10.3546 6.52022 9.61305 6.52007 9.15513 6.97814C8.69707 7.43605 8.69707 8.17717 9.15513 8.63524C9.61198 9.09209 10.3555 9.09224 10.8125 8.63524ZM9.7075 7.53051C9.86024 7.37792 10.1074 7.37792 10.2602 7.53051C10.4123 7.68279 10.4123 7.93044 10.2602 8.08272C10.1077 8.235 9.85978 8.23516 9.7075 8.08272C9.55507 7.93044 9.55446 7.68355 9.7075 7.53051Z" fill="#8D8D8D"/>
<path d="M9.15513 11.3972C8.69707 11.8552 8.69707 12.5966 9.15513 13.0547C9.61305 13.5126 10.3545 13.5128 10.8125 13.0547C11.2695 12.5977 11.2695 11.8542 10.8125 11.3972C10.3546 10.9394 9.61305 10.9392 9.15513 11.3972ZM10.2602 12.5023C10.1074 12.6549 9.86009 12.6549 9.7075 12.5023C9.55507 12.3499 9.55446 12.1027 9.7075 11.9497C9.86024 11.7969 10.1074 11.7971 10.2602 11.9497C10.4125 12.102 10.4125 12.3499 10.2602 12.5023Z" fill="#8D8D8D"/>
<path d="M6.83857 10.6452C6.88084 10.857 7.08683 10.9939 7.29816 10.9516L12.8223 9.84659C13.0338 9.80432 13.171 9.59848 13.1287 9.38699C13.0864 9.17535 12.8806 9.03832 12.6691 9.08059L7.14497 10.1856C6.93333 10.2279 6.79615 10.4337 6.83857 10.6452Z" fill="#8D8D8D"/>
<path d="M11.8753 2.2099C11.7717 2.2099 11.6723 2.25095 11.5991 2.32419L7.49798 6.42529C7.34539 6.57788 7.34539 6.82523 7.49798 6.97781C7.65057 7.1304 7.89791 7.1304 8.05035 6.97781L11.8753 3.15289L16.8469 8.12466L8.07735 16.8942L3.10559 11.9226L5.84072 9.18744C5.99331 9.035 5.99331 8.78766 5.84072 8.63507C5.68814 8.48264 5.44079 8.48264 5.2882 8.63507L2.27704 11.6464C2.12445 11.7988 2.12445 12.0462 2.27704 12.1988L7.80117 17.7229C7.95376 17.8755 8.20095 17.8755 8.35354 17.7229L17.6756 8.40085C17.8282 8.24826 17.8282 8.00092 17.6756 7.84833L12.1514 2.32419C12.0782 2.25095 11.9789 2.2099 11.8753 2.2099Z" fill="#8D8D8D"/>
<path d="M19.3325 0.114534L17.6559 1.79102C16.6777 1.05234 15.3268 1.04029 14.3568 1.7605L12.9835 0.347383C12.9821 0.34601 12.9809 0.344789 12.9796 0.343416C12.5239 -0.112211 11.783 -0.117094 11.3218 0.344027L0.343006 11.3702C-0.11491 11.8281 -0.115063 12.5697 0.343006 13.0277L1.89238 14.577C1.54631 15.5674 1.79595 16.6903 2.55263 17.4467C3.30916 18.2035 4.43205 18.453 5.4225 18.1072L6.97187 19.6565C7.42979 20.1144 8.17167 20.1142 8.62867 19.6571L19.656 8.677C20.1141 8.21894 20.1141 7.47782 19.656 7.0199C19.6547 7.01853 19.6534 7.01731 19.6521 7.01593L18.2391 5.64295C18.9567 4.67951 18.954 3.32804 18.2084 2.34354L19.8849 0.667055C20.0375 0.514467 20.0375 0.267122 19.8849 0.114534C19.7323 -0.0380535 19.4851 -0.0380535 19.3325 0.114534ZM17.427 5.39057C17.3532 5.46457 17.312 5.56497 17.3126 5.66965C17.3133 5.77417 17.3561 5.87412 17.431 5.9469L19.1052 7.57395C19.2567 7.72714 19.255 7.97312 19.1041 8.12387L8.07691 19.1039C7.92448 19.2564 7.67652 19.2564 7.52424 19.1039L5.79176 17.3716C5.71699 17.2967 5.61689 17.2572 5.51557 17.2572C5.45942 17.2572 5.40281 17.2692 5.34971 17.2941C4.59852 17.6466 3.69642 17.4859 3.10515 16.8942C2.51341 16.3029 2.35274 15.4009 2.70522 14.6498C2.7751 14.5007 2.74428 14.324 2.62785 14.2076L0.895526 12.4752C0.743091 12.3228 0.743091 12.075 0.895983 11.9219L11.875 0.895784C12.0269 0.743959 12.2726 0.743044 12.4255 0.894106L14.0524 2.5683C14.1983 2.71845 14.4481 2.73309 14.6089 2.57242C15.2775 1.90347 16.3246 1.83206 17.0959 2.35102L16.5229 2.92398C16.0873 2.71646 15.5493 2.7926 15.1892 3.15271C14.7323 3.60971 14.7323 4.35327 15.1892 4.81012C15.6471 5.26804 16.3887 5.26819 16.8467 4.81012C17.2151 4.44177 17.2796 3.90146 17.0759 3.47589L17.6487 2.90308C18.1637 3.66541 18.1044 4.71338 17.427 5.39057ZM16.2942 3.70508C16.4467 3.85752 16.4473 4.10471 16.2942 4.25775C16.1416 4.41034 15.8943 4.41034 15.7417 4.25775C15.5893 4.10532 15.5893 3.85736 15.7415 3.70508C15.894 3.55295 16.1419 3.55264 16.2942 3.70508Z" fill="#8D8D8D"/>
</g>
<defs>
<clipPath id="clip0">
<rect width="20" height="20" fill="white"/>
</clipPath>
</defs>
</svg>
