<svg width="26" height="26" viewBox="0 0 26 26" fill="none" xmlns="http://www.w3.org/2000/svg">
<path d="M19.9062 5.6875H19.5V3.65625C19.5 3.432 19.318 3.25 19.0938 3.25H6.90625C6.682 3.25 6.5 3.432 6.5 3.65625V5.6875H6.09375C5.8695 5.6875 5.6875 5.8695 5.6875 6.09375V8.53125C5.6875 8.7555 5.8695 8.9375 6.09375 8.9375H6.54509L6.98059 12.6409V12.6413L7.31534 15.485L8.12784 22.3913C8.15181 22.596 8.32528 22.75 8.53125 22.75H13.4062C13.6305 22.75 13.8125 22.568 13.8125 22.3438C13.8125 22.1195 13.6305 21.9375 13.4062 21.9375H8.89241L8.51012 18.6875H17.4899L17.1076 21.9375H15.8438C15.6195 21.9375 15.4375 22.1195 15.4375 22.3438C15.4375 22.568 15.6195 22.75 15.8438 22.75H17.4688C17.6747 22.75 17.8482 22.596 17.8722 22.3913L18.6847 15.485L19.0194 12.6413L19.4549 8.9375H19.9062C20.1305 8.9375 20.3125 8.7555 20.3125 8.53125V6.09375C20.3125 5.8695 20.1305 5.6875 19.9062 5.6875ZM17.5853 17.875H8.41466L8.12784 15.4375L7.84103 13H18.159L17.8722 15.4375L17.5853 17.875ZM18.2548 12.1875H7.74516L7.36288 8.9375H18.6367L18.2548 12.1875ZM19.5 8.125H19.0938H6.90625H6.5V6.5H15.0312C15.2555 6.5 15.4375 6.318 15.4375 6.09375C15.4375 5.8695 15.2555 5.6875 15.0312 5.6875H7.3125V4.0625H18.6875V5.6875H16.6562C16.432 5.6875 16.25 5.8695 16.25 6.09375C16.25 6.318 16.432 6.5 16.6562 6.5H19.5V8.125Z" fill="#8D8D8D"/>
<path d="M14.625 22.75C14.8494 22.75 15.0312 22.5681 15.0312 22.3438C15.0312 22.1194 14.8494 21.9375 14.625 21.9375C14.4006 21.9375 14.2188 22.1194 14.2188 22.3438C14.2188 22.5681 14.4006 22.75 14.625 22.75Z" fill="#8D8D8D"/>
</svg>
