<svg width="20" height="19" viewBox="0 0 20 19" fill="none" xmlns="http://www.w3.org/2000/svg">
<path d="M2.01989 12.4584L1.29077 5.23164H18.5752L17.9222 12.2924C17.887 12.6724 17.6712 13.0122 17.3423 13.2057L16.3478 13.7908C11.9966 16.3503 6.54692 16.1103 2.43761 13.1783L2.26337 13.4225L2.43761 13.1783C2.20126 13.0096 2.04904 12.7473 2.01989 12.4584Z" stroke="#8D8D8D" stroke-width="0.6"/>
<path d="M19.7 4.58015C19.7 5.65616 18.7346 6.72691 16.9461 7.54606C15.1839 8.35317 12.7284 8.86031 10 8.86031C7.2716 8.86031 4.81606 8.35317 3.05386 7.54606C1.26537 6.72691 0.3 5.65616 0.3 4.58015C0.3 3.50415 1.26537 2.4334 3.05386 1.61425C4.81606 0.807132 7.2716 0.3 10 0.3C12.7284 0.3 15.1839 0.807132 16.9461 1.61425C18.7346 2.4334 19.7 3.50415 19.7 4.58015Z" fill="white" stroke="#8D8D8D" stroke-width="0.6"/>
<path d="M18.6042 4.52072C18.6042 5.46678 17.7538 6.41989 16.1513 7.15389C14.575 7.87585 12.3763 8.33031 9.93159 8.33031C7.4869 8.33031 5.28821 7.87585 3.71192 7.15389C2.10936 6.41989 1.25898 5.46678 1.25898 4.52072C1.25898 3.57466 2.10936 2.62155 3.71192 1.88756C5.28821 1.16559 7.4869 0.711133 9.93159 0.711133C12.3763 0.711133 14.575 1.16559 16.1513 1.88756C17.7538 2.62155 18.6042 3.57466 18.6042 4.52072Z" fill="white" stroke="#8D8D8D" stroke-width="0.6"/>
</svg>
