<svg width="22" height="22" viewBox="0 0 22 22" fill="none" xmlns="http://www.w3.org/2000/svg">
<g clip-path="url(#clip0)">
<path d="M20.7536 9.79402L11.7365 0.978546L11.3881 0.245224C11.3169 0.0955047 11.1658 0 11 0C10.8342 0 10.6831 0.0955047 10.6119 0.245224L10.2635 0.978546L1.24643 9.79402C1.16385 9.87476 1.11719 9.98553 1.11719 10.1012C1.11719 10.2168 1.16385 10.3276 1.24643 10.4085L4.3437 13.4365L3.343 15.5423C3.25757 15.722 3.30675 15.9369 3.46184 16.0616L10.7308 21.9052C10.8095 21.9684 10.9047 22 11 22C11.0953 22 11.1907 21.9684 11.2692 21.9052L18.5382 16.0616C18.6933 15.9369 18.7424 15.722 18.6572 15.5423L17.6565 13.4365L17.7127 13.3814C17.8824 13.2154 17.8856 12.9435 17.7197 12.7738C17.6039 12.6555 17.4369 12.6184 17.2887 12.6627L16.8765 11.7953L19.2238 9.50029L19.841 10.1035C19.7081 10.2707 19.7173 10.5144 19.8704 10.671C20.0362 10.8407 20.3084 10.8437 20.478 10.6779L20.7536 10.4085C20.8363 10.3276 20.883 10.2168 20.883 10.1013C20.883 9.9857 20.8362 9.87476 20.7536 9.79402ZM8.98584 4.66849C9.20018 4.7702 9.45648 4.67906 9.55836 4.46472L11 1.43089L16.9769 14.0088L11 18.8138L5.02315 14.0088L5.99464 11.9643C6.02872 11.9185 6.05238 11.8674 6.06598 11.8144L7.89853 7.95761C8.00041 7.74327 7.90927 7.48697 7.69493 7.38509C7.48059 7.2832 7.22429 7.37434 7.12241 7.58885L5.51343 10.9747L3.39084 8.8994L9.19682 3.22316L8.78207 4.09596C8.68036 4.3103 8.7715 4.5666 8.98584 4.66849ZM2.16153 10.1012L2.77618 9.50029L5.12352 11.7951L4.73361 12.6157L2.16153 10.1012ZM11 21.0189L4.26482 15.6045L4.64398 14.8066L10.7308 19.6998C10.8095 19.7631 10.9047 19.7947 11 19.7947C11.0953 19.7947 11.1907 19.7631 11.2692 19.6998L17.356 14.8068L17.7352 15.6045L11 21.0189ZM16.4866 10.9747L12.8032 3.22316L18.6092 8.8994L16.4866 10.9747Z" fill="#8D8D8D"/>
<path d="M8.50968 5.63175C8.29148 5.53826 8.03887 5.63947 7.94538 5.85768C7.85189 6.07571 7.95293 6.32832 8.17097 6.42182C8.22619 6.44548 8.28359 6.45673 8.34016 6.45673C8.50683 6.45673 8.66545 6.35904 8.73527 6.19623L8.73544 6.19589C8.82893 5.97769 8.72772 5.72525 8.50968 5.63175Z" fill="#8D8D8D"/>
<path d="M18.4769 11.4334C18.3173 11.609 18.3302 11.8807 18.5058 12.0405C18.5882 12.1152 18.6916 12.1521 18.7948 12.1521C18.9116 12.1521 19.0281 12.1048 19.1129 12.0115L19.1131 12.0113C19.2727 11.8357 19.2596 11.5642 19.084 11.4045C18.9084 11.2448 18.6365 11.2578 18.4769 11.4334Z" fill="#8D8D8D"/>
</g>
<defs>
<clipPath id="clip0">
<rect width="22" height="22" fill="white"/>
</clipPath>
</defs>
</svg>
