<svg width="20" height="20" viewBox="0 0 20 20" fill="none" xmlns="http://www.w3.org/2000/svg">
<path d="M1.25 0V20H10.4166V15H17.5C18.1897 15 18.75 14.4396 18.75 13.75V0H1.25ZM10.4166 0.833444H13.75V10H10.4166V0.833444ZM5.41656 19.1662H2.0834V0.833444H5.41656V19.1662ZM9.58346 19.1662H6.25V0.833444H9.58342V10H7.91658V13.75C7.91658 14.4396 8.47748 15 9.16658 15H9.58346V19.1662ZM9.16655 14.1662C8.93674 14.1662 8.74998 13.9794 8.74998 13.75V10.8338H16.25V13.75C16.25 13.8958 16.275 14.0362 16.3214 14.1662H9.16655ZM17.9163 13.75C17.9162 13.9794 17.7295 14.1662 17.5 14.1662C17.2705 14.1662 17.0837 13.9794 17.0837 13.75V10H14.5837V0.833444H17.9163V13.75Z" fill="#8D8D8D"/>
</svg>
