<svg width="20" height="20" viewBox="0 0 20 20" fill="none" xmlns="http://www.w3.org/2000/svg">
<g clip-path="url(#clip0)">
<path d="M19.2081 4.41295L10.1274 0.0291211C10.0468 -0.00970703 9.9531 -0.00970703 9.87263 0.0291211L0.791807 4.41295C0.690557 4.46182 0.626221 4.56436 0.626221 4.67678V15.3232C0.626221 15.4356 0.690557 15.5382 0.791807 15.5871L9.87259 19.9709C9.91282 19.9903 9.95642 20 9.99997 20C10.0435 20 10.0871 19.9903 10.1274 19.9709L19.2081 15.5871C19.3094 15.5382 19.3737 15.4356 19.3737 15.3232V4.67682C19.3737 4.56432 19.3093 4.46186 19.2081 4.41295ZM9.99997 0.618301L18.4069 4.67678L15.9699 5.85326C15.9545 5.8415 15.9382 5.83064 15.9203 5.82201L7.57048 1.79115L9.99997 0.618301ZM6.90884 2.1224L15.3035 6.17498L13.5842 7.00502L5.19298 2.95408L6.90884 2.1224ZM15.4999 6.73076V9.79896L13.894 10.5743V7.50607L15.4999 6.73076ZM18.7878 15.1394L10.2929 19.2403V9.24447L12.3192 8.26627C12.4649 8.19592 12.526 8.0208 12.4557 7.87506C12.3853 7.72939 12.2102 7.66822 12.0645 7.73861L9.99997 8.73529L9.18763 8.34311C9.04188 8.27268 8.86677 8.33385 8.79642 8.47955C8.72606 8.62525 8.78716 8.80041 8.93286 8.87076L9.707 9.24447V19.2403L1.21216 15.1393V5.14354L7.68091 8.26639C7.72196 8.28623 7.76536 8.29561 7.80806 8.29561C7.91696 8.29561 8.02157 8.23459 8.07208 8.12994C8.14243 7.98424 8.08134 7.80908 7.93563 7.73873L1.59306 4.67678L4.50341 3.27178L13.304 7.52033C13.3052 7.52213 13.3067 7.52373 13.308 7.52549V11.0411C13.308 11.1419 13.3599 11.2356 13.4452 11.2892C13.4927 11.319 13.5468 11.334 13.601 11.334C13.6445 11.334 13.688 11.3244 13.7284 11.3049L15.9203 10.2467C16.0215 10.1979 16.0859 10.0954 16.0859 9.98291V6.44795L18.7878 5.14357V15.1394Z" fill="#8D8D8D"/>
<path d="M3.62999 14.0031L2.29737 13.3598C2.15159 13.2894 1.97651 13.3506 1.90616 13.4963C1.83581 13.642 1.8969 13.8171 2.04261 13.8875L3.37522 14.5308C3.41628 14.5506 3.45968 14.56 3.50237 14.56C3.61128 14.56 3.71589 14.499 3.76639 14.3943C3.83679 14.2486 3.77569 14.0735 3.62999 14.0031Z" fill="#8D8D8D"/>
<path d="M4.85628 13.2047L2.29906 11.9701C2.15332 11.8998 1.9782 11.9609 1.90785 12.1066C1.83753 12.2523 1.89863 12.4275 2.04433 12.4978L4.60156 13.7324C4.64261 13.7522 4.68601 13.7616 4.72871 13.7616C4.83761 13.7616 4.94222 13.7006 4.99273 13.5959C5.06308 13.4501 5.00199 13.275 4.85628 13.2047Z" fill="#8D8D8D"/>
</g>
<defs>
<clipPath id="clip0">
<rect width="20" height="20" fill="white"/>
</clipPath>
</defs>
</svg>
