<svg width="22" height="22" viewBox="0 0 22 22" fill="none" xmlns="http://www.w3.org/2000/svg">
<path d="M21.2903 10.2903C21.2903 4.61637 16.6743 0 11 0C5.32568 0 0.709656 4.61637 0.709656 10.2903C0.709656 14.4562 3.28224 18.2558 7.12829 19.8205L7.09675 20.5806C7.09675 21.3634 7.73331 22 8.51611 22C9.2989 22 9.93546 21.3634 9.93511 20.5657L9.93338 20.5197C10.2872 20.5559 10.6438 20.5806 11 20.5806C11.5982 20.5806 12.1948 20.5264 12.7806 20.4242L12.7742 20.5806C12.7742 21.3634 13.4107 22 14.1935 22C14.9763 22 15.6129 21.3634 15.6125 20.5657L15.5685 19.508C19.0488 17.7788 21.2903 14.1833 21.2903 10.2903ZM12.7742 10.2903H15.6129C15.6129 11.0731 14.9763 11.7097 14.1935 11.7097C13.4107 11.7097 12.7742 11.0731 12.7742 10.2903ZM16.3226 10.2903V5.32258H15.6129V9.58064H14.5484V5.32258H13.8387V9.58064H12.7742V5.32258H12.0645V10.2903C12.0645 11.0752 12.4924 11.7604 13.1262 12.1295L12.9029 17.4942C11.9013 17.7575 10.834 17.8083 9.81383 17.6454L9.58495 12.1563C10.6214 11.6274 11.3548 10.3549 11.3548 8.87097C11.3548 6.91433 10.0813 5.32258 8.51611 5.32258C6.95087 5.32258 5.6774 6.91433 5.6774 8.87097C5.6774 10.3549 6.41081 11.6274 7.44726 12.156L7.25684 16.7316C4.96027 15.3979 3.54837 12.9676 3.54837 10.2903C3.54837 6.18161 6.89092 2.83871 11 2.83871C15.109 2.83871 18.4516 6.18161 18.4516 10.2903C18.4516 12.6682 17.3313 14.8745 15.4341 16.2793L15.2612 12.1295C15.8946 11.7604 16.3226 11.0752 16.3226 10.2903ZM6.38707 8.87097C6.38707 7.30573 7.34192 6.03226 8.51611 6.03226C9.6903 6.03226 10.6451 7.30573 10.6451 8.87097C10.6451 10.4362 9.6903 11.7097 8.51611 11.7097C7.34192 11.7097 6.38707 10.4362 6.38707 8.87097ZM8.51611 21.2903C8.12471 21.2903 7.80643 20.972 7.80608 20.5955L8.1481 12.3859C8.26886 12.4058 8.39119 12.4194 8.51611 12.4194C8.64103 12.4194 8.76335 12.4058 8.88411 12.3859L9.22578 20.5806C9.22578 20.972 8.9075 21.2903 8.51611 21.2903ZM9.90323 19.8003L9.84329 18.3619C10.2253 18.4161 10.6117 18.4516 11 18.4516C11.6331 18.4516 12.2603 18.3747 12.8721 18.2312L12.8114 19.6922C11.8583 19.8741 10.869 19.9103 9.90323 19.8003ZM14.1935 21.2903C13.8021 21.2903 13.4838 20.972 13.4835 20.5955L13.8255 12.3852C13.9454 12.4062 14.0679 12.4194 14.1935 12.4194C14.3191 12.4194 14.4416 12.4062 14.5615 12.3852L14.9032 20.5806C14.9032 20.972 14.5849 21.2903 14.1935 21.2903ZM15.536 18.7255L15.4689 17.1199C17.7809 15.6037 19.1613 13.0528 19.1613 10.2903C19.1613 5.78987 15.5001 2.12903 11 2.12903C6.49987 2.12903 2.83869 5.78987 2.83869 10.2903C2.83869 13.3465 4.51776 16.1103 7.2241 17.5252L7.16034 19.0631C3.71019 17.5486 1.41933 14.0828 1.41933 10.2903C1.41933 5.00742 5.71707 0.709677 11 0.709677C16.2829 0.709677 20.5806 5.00742 20.5806 10.2903C20.5806 13.8082 18.6141 17.0645 15.536 18.7255Z" fill="#8D8D8D"/>
</svg>
