<svg width="20" height="20" viewBox="0 0 20 20" fill="none" xmlns="http://www.w3.org/2000/svg">
<path d="M19.0625 7.49991H18.0897L14.1656 0.703348C14.1041 0.596598 14.0222 0.503019 13.9245 0.42796C13.8268 0.352901 13.7152 0.297834 13.5962 0.265909C13.4773 0.233984 13.3531 0.225826 13.231 0.241902C13.1088 0.257978 12.9911 0.297972 12.8844 0.359598L11.8022 0.984598C11.6954 1.04611 11.6019 1.12805 11.5268 1.22575C11.4517 1.32345 11.3967 1.43498 11.3647 1.55397C11.3328 1.67297 11.3247 1.79709 11.3407 1.91924C11.3568 2.04138 11.3968 2.15917 11.4584 2.26585L14.4812 7.49991H5.51875L8.54063 2.26616C8.60225 2.15948 8.64225 2.0417 8.65832 1.91955C8.6744 1.7974 8.66624 1.67328 8.63431 1.55429C8.60239 1.43529 8.54732 1.32376 8.47226 1.22606C8.3972 1.12836 8.30362 1.04642 8.19687 0.984911L7.11469 0.359911C7.00801 0.298285 6.89022 0.25829 6.76807 0.242214C6.64593 0.226139 6.52181 0.234296 6.40281 0.266222C6.28382 0.298147 6.17229 0.353213 6.07459 0.428272C5.97689 0.503331 5.89494 0.596911 5.83344 0.703661L1.91062 7.49991H0.9375C0.85462 7.49991 0.775134 7.53283 0.716529 7.59144C0.657924 7.65004 0.625 7.72953 0.625 7.81241V10.3124C0.625 10.3953 0.657924 10.4748 0.716529 10.5334C0.775134 10.592 0.85462 10.6249 0.9375 10.6249H1.65625L4.70719 19.1674C4.72876 19.2279 4.76845 19.2803 4.82084 19.3174C4.87323 19.3545 4.93579 19.3746 5 19.3749H15C15.0645 19.3749 15.1274 19.355 15.1801 19.3178C15.2328 19.2807 15.2727 19.2281 15.2944 19.1674L18.3453 10.6249H19.0625C19.1454 10.6249 19.2249 10.592 19.2835 10.5334C19.3421 10.4748 19.375 10.3953 19.375 10.3124V7.81241C19.375 7.72953 19.3421 7.65004 19.2835 7.59144C19.2249 7.53283 19.1454 7.49991 19.0625 7.49991ZM11.9688 1.71616C11.9793 1.67654 11.9976 1.6394 12.0226 1.6069C12.0476 1.57439 12.0788 1.54716 12.1144 1.52679L13.1969 0.901786C13.2443 0.874009 13.2982 0.859441 13.3531 0.859598C13.3806 0.859724 13.408 0.863294 13.4347 0.870223C13.5147 0.891695 13.583 0.944076 13.6244 1.01585L17.6869 8.05241C17.7283 8.12418 17.7395 8.20948 17.7181 8.28953C17.6966 8.36959 17.6443 8.43784 17.5725 8.47929L16.49 9.10429C16.4182 9.14572 16.3329 9.15695 16.2529 9.1355C16.1728 9.11405 16.1046 9.06168 16.0631 8.98991L12 1.95304C11.9794 1.91757 11.9661 1.87838 11.9607 1.83772C11.9553 1.79707 11.9581 1.75575 11.9688 1.71616ZM12.0256 13.4187C11.9125 13.8705 11.6517 14.2715 11.2846 14.5581C10.9175 14.8446 10.4651 15.0003 9.99937 15.0003C9.53365 15.0003 9.08128 14.8446 8.71415 14.5581C8.34702 14.2715 8.0862 13.8705 7.97312 13.4187L6.65031 8.12491H13.3497L12.0256 13.4187ZM2.3125 8.05241L6.375 1.01585C6.41642 0.944076 6.48465 0.891695 6.56469 0.870223C6.59133 0.863294 6.61873 0.859724 6.64625 0.859598C6.70115 0.859607 6.75506 0.874163 6.8025 0.901786L7.885 1.52679C7.95679 1.56812 8.00924 1.63627 8.0308 1.71626C8.05237 1.79625 8.04129 1.88153 8 1.95335L3.9375 8.98991C3.89606 9.06168 3.8278 9.11405 3.74775 9.1355C3.6677 9.15695 3.5824 9.14572 3.51063 9.10429L2.42844 8.47929C2.39277 8.4589 2.36147 8.43167 2.33633 8.39917C2.3112 8.36667 2.29272 8.32954 2.28195 8.28989C2.27118 8.25024 2.26833 8.20886 2.27358 8.16811C2.27882 8.12736 2.29205 8.08804 2.3125 8.05241ZM1.25 8.12491H1.65281C1.63657 8.30271 1.67144 8.48145 1.75332 8.64011C1.83519 8.79877 1.96067 8.93075 2.115 9.02053L3.1975 9.64553C3.33997 9.72787 3.5017 9.771 3.66625 9.77053C3.74862 9.77081 3.83067 9.7603 3.91031 9.73928C4.02943 9.70764 4.1411 9.65267 4.23883 9.57758C4.33657 9.50248 4.41843 9.40874 4.47969 9.30178L5.15781 8.12491H6.00594L6.47469 9.99991H1.25V8.12491ZM14.7812 18.7499H5.21875L2.31844 10.6249H6.63094L7.3675 13.5702C7.51445 14.1572 7.85332 14.6781 8.33029 15.0504C8.80726 15.4227 9.39495 15.6249 10 15.6249C10.605 15.6249 11.1927 15.4227 11.6697 15.0504C12.1467 14.6781 12.4856 14.1572 12.6325 13.5702L13.3691 10.6249H17.6816L14.7812 18.7499ZM18.75 9.99991H13.5253L13.9941 8.12491H14.8438L15.5234 9.30241C15.5847 9.40936 15.6666 9.50311 15.7643 9.5782C15.862 9.6533 15.9737 9.70826 16.0928 9.73991C16.1725 9.76093 16.2545 9.77143 16.3369 9.77116C16.5009 9.77135 16.6621 9.72823 16.8041 9.64616L17.8866 9.02116C18.0407 8.93112 18.1659 8.79895 18.2475 8.64018C18.3291 8.48142 18.3637 8.30265 18.3472 8.12491H18.75V9.99991Z" fill="#8D8D8D"/>
</svg>
