<svg width="30" height="30" viewBox="0 0 30 30" fill="none" xmlns="http://www.w3.org/2000/svg">
<g clip-path="url(#clip0)">
<path d="M12.5793 23.603C11.1245 23.603 9.94092 24.7866 9.94092 26.2415C9.94092 27.6963 11.1245 28.8799 12.5793 28.8799C14.0342 28.8799 15.2178 27.6963 15.2178 26.2415C15.2177 24.7866 14.0341 23.603 12.5793 23.603ZM12.5793 27.4066C11.9368 27.4066 11.4141 26.8838 11.4141 26.2413C11.4141 25.5988 11.9369 25.0761 12.5793 25.0761C13.2218 25.0761 13.7446 25.5989 13.7446 26.2413C13.7446 26.8839 13.2218 27.4066 12.5793 27.4066Z" fill="#6B6A6B"/>
<path d="M21.8337 23.603C20.3789 23.603 19.1953 24.7866 19.1953 26.2415C19.1953 27.6963 20.3789 28.8799 21.8337 28.8799C23.2886 28.8799 24.4722 27.6963 24.4722 26.2415C24.4721 24.7866 23.2885 23.603 21.8337 23.603ZM21.8337 27.4066C21.1912 27.4066 20.6685 26.8838 20.6685 26.2413C20.6685 25.5988 21.1913 25.0761 21.8337 25.0761C22.4763 25.0761 22.999 25.5989 22.999 26.2413C22.999 26.8839 22.4762 27.4066 21.8337 27.4066Z" fill="#6B6A6B"/>
<path d="M29.6685 6.43048C29.3876 6.08571 28.9713 5.88802 28.5265 5.88802H5.58273L5.11937 3.63866C5.02263 3.16944 4.70259 2.77545 4.26308 2.58461L1.03005 1.18129C0.656804 1.01916 0.223034 1.19043 0.0611397 1.56356C-0.100931 1.9368 0.0703389 2.37063 0.443406 2.53252L3.67649 3.9359L7.24052 21.2364C7.38091 21.9177 7.98771 22.4122 8.68339 22.4122H26.3299C26.7367 22.4122 27.0664 22.0825 27.0664 21.6757C27.0664 21.2688 26.7367 20.9391 26.3299 20.9391H8.68345L8.24992 18.8346H26.4663C27.1619 18.8346 27.7687 18.3401 27.9091 17.6588L29.9694 7.65826C30.0591 7.22279 29.9494 6.77519 29.6685 6.43048ZM26.4663 17.3616H7.94646L5.88624 7.36113L28.5265 7.36119L26.4663 17.3616Z" fill="#6B6A6B"/>
</g>
<defs>
<clipPath id="clip0">
<rect width="30" height="30" fill="white"/>
</clipPath>
</defs>
</svg>
